<svg xmlns="http://www.w3.org/2000/svg" viewBox="0 0 377.70169 342.09384"><path d="M95.645.002C25.47-.44-14.135 84.003 9.08 144.778c19.74 51.674 75.8 96.902 115.68 136.949l3.713-6.069s2.879-14.631.922-10.585c-.771 1.593 1.456-10.906 2.156-18.471.7-7.565-.975-18.12-.975-18.12s-29.986 7.652-36.941 5.632c-6.956-2.02-10.029-6.053-14.301-10.116-4.272-4.062-9.009-9.74-11.084-14.006-2.075-4.265-1.034-5.47-2.502-10.117-1.468-4.647-6.954-12.025-6.793-17.51.162-5.484 5.719-12.45 5.719-12.45l9.654-10.116 24.668-10.896s.021-11.127-.715-16.34c-.736-5.214-3.875-10.829-3.574-14.785.302-3.957 2.67-4.73 3.217-7.782.546-3.052-.289-6.225-.358-10.117-.069-3.891 0-13.228 0-13.228s.752-21.587 3.22-29.961c2.466-8.374 7.216-14.667 10.009-19.842 2.793-5.175 6.523-11.32 6.523-11.32s4.315 1.989 7.778 6.65c3.462 4.661 7.358 16.13 10.01 22.566 2.65 6.436 6.078 15.954 6.078 15.954l1.787 15.953 22.88.777 18.233-2.336 4.65-4.277 3.215-5.059 12.873-17.51 14.657-18.673 13.943-11.674 9.654-5.057 5.362-1.17 5.36 3.113 1.075 13.229-5.72 19.066-2.145 25.678-4.649 19.846-2.859 13.615-5.72 17.9s2.214 8 .613 12.022 4.749 13.27-1.625 8.117c-6.374-5.152 1.668 3.192 4.228 5.93 2.56 2.738-2.64 7.415 1.072 11.283 5.905 6.153 5.419 15.824 6.793 22.568 1.375 6.745 6.587 13.907 9.295 17.12 2.708 3.212 4.987 5.304 8.225 6.613 3.237 1.308 3.217 2.336 3.217 2.336l7.47.716c22.722-23.706 43.036-48.988 53.372-76.046 30.32-79.38-46.524-199.136-158.68-117.393C141.473 8.227 117.126.138 95.645.002z" opacity=".5" fill="#ff2a2a" fill-rule="evenodd"/><path d="M0 126.918h32.158l5.847-14.617 6.822 28.26 7.796-17.54 4.872 15.591 15.593-65.291 15.592 71.138 4.872-25.337 137.405.975 4.872-11.694 11.694 25.337 7.796-13.643 6.822 12.668 12.668-54.572 7.796 55.547 8.77-20.465 42.878.975" fill="none" stroke="#fff"/><path d="M142.336 342.094S374.33 291.198 377.702 124.97" fill="none"/><path style="line-height:138.99999857%;-inkscape-font-specification:'AR BONNIE Thin'" d="M136.728 300.579q-1.383-5.227 1.253-9.597 2.663-4.416 7.94-5.749l.465 1.755q-4.416 1.115-6.73 4.896-2.312 3.782-1.131 8.241 1.17 4.423 5.032 6.645 3.863 2.222 8.353 1.088l.465 1.755q-5.165 1.304-9.724-1.288-4.559-2.593-5.923-7.746zm29.599 4.875l-5.215-16.325-4.502 1.371 5.216 16.326-1.808.551-5.216-16.326-.885.27-1.229-1.563 1.55-.473-1.9-5.946 1.808-.551 1.9 5.946 4.502-1.371-1.9-5.947 1.808-.55 7.68 24.037-1.809.551zm10.921-3.535l-5.828-16.167-.912.313-1.285-1.519 1.568-.539-2.106-5.84 6.235-2.144.63 1.745-4.449 1.53 1.476 4.095 4.23-1.455 1.285 1.52-4.886 1.68 5.2 14.422 4.448-1.53.629 1.745-6.235 2.144zm22.31-8.141l-8.228-2.67 2.045 5.056-1.761.68-9.474-23.42 1.33-.513q3.99-1.54 7.91.033t5.51 5.505q1.278 3.16.454 6.157-.824 2.998-3.483 5.363l8.501 2.727-2.804 1.082zm-4.373-14.509q-1.292-3.195-4.266-4.483-2.951-1.337-6.35-.391l6.207 15.344q3.093-1.6 4.333-4.392 1.34-2.953.076-6.078zm23.035 6.697l-8.342-2.311 2.273 4.963-1.73.755-10.527-22.986 1.305-.57q3.917-1.712 7.904-.31 3.987 1.4 5.755 5.26 1.42 3.102.733 6.132-.687 3.03-3.236 5.508l8.617 2.356-2.752 1.203zm-5.028-14.305q-1.436-3.136-4.465-4.294-3.01-1.209-6.362-.116l6.897 15.06q3.018-1.732 4.13-4.575 1.205-3.008-.2-6.075zm19.052 7.752l-7.977-15.479-8.38-4.671 2.038-1.002 6.354 3.597.69-7.06 2.036-1-1.08 9.322 7.976 15.478-1.657.815zm34.034-18.802l-12.927-19.62-2.568 1.615-1.025-1.556 6.663-4.188 1.025 1.555-2.503 1.573 12.928 19.62-1.593 1.001zm17.495-11.725l-8.65-.597 3.264 4.404-1.535 1.084-15.114-20.4 1.159-.819q3.476-2.456 7.672-1.88 4.196.576 6.734 4.001 2.04 2.753 2 5.856-.038 3.103-2.015 6.038l8.928.587-2.443 1.726zm-7.914-13q-2.062-2.783-5.27-3.313-3.198-.582-6.252 1.157l9.903 13.366q2.592-2.298 3.085-5.303.55-3.185-1.466-5.907zm17.376 5.868l-11.161-13.227-.746.6-1.742-.995 1.283-1.032-4.032-4.778 5.101-4.106 1.205 1.427-3.64 2.93 2.828 3.35 3.46-2.785 1.741.995-3.997 3.218 9.957 11.799 3.639-2.93 1.204 1.428-5.1 4.106zm11.752-9.823l-11.96-12.542-.707.643-1.8-.89 1.216-1.107-4.32-4.53 4.836-4.4 1.291 1.353-3.45 3.14 3.029 3.176 3.281-2.984 1.8.89-3.79 3.448 10.67 11.189 3.45-3.14 1.291 1.354-4.837 4.4zm4.209-40.845l1.195-1.578 17.185 7.527-12.474-13.75 1.172-1.548 17.735 19.944-24.813-10.595zm32.174-.957l-15.007-8.887-.5.807-1.981-.378.862-1.388-5.42-3.21 3.426-5.52 1.62.959-2.445 3.938 3.8 2.251 2.326-3.744 1.98.378-2.686 4.325 13.387 7.928 2.445-3.939 1.62.96-3.428 5.52zm8.218-14.286l-21.42-10.327-1.352 2.674-1.699-.819 3.525-6.973 1.698.818-1.334 2.641 21.42 10.327-.838 1.659zm2.929-10.529q1.201-3.027 1.246-4.184.103-2.35-2.42-3.305-1.802-.682-4.942-.292-3.126.356-6.057.744-3.456.352-5.294-.344-2.271-.86-2.844-2.655-.594-1.845.314-4.133l.503-1.267 1.73.655q-.88 2.217-.913 3.136-.052 1.802 1.786 2.498 1.874.71 5.172.338l5.791-.803q3.456-.352 5.439.398 2.595.982 3.338 3.288.69 2.124-.343 4.73l-.74 1.865-1.766-.669z" font-weight="100" font-size="40" font-family="AR BONNIE" letter-spacing="5.93" word-spacing="2.55" fill="#ff2a2a"/></svg>