<svg xmlns:dc="http://purl.org/dc/elements/1.1/" xmlns:cc="http://creativecommons.org/ns#" xmlns:rdf="http://www.w3.org/1999/02/22-rdf-syntax-ns#" xmlns:svg="http://www.w3.org/2000/svg" xmlns="http://www.w3.org/2000/svg" xmlns:sodipodi="http://sodipodi.sourceforge.net/DTD/sodipodi-0.dtd" xmlns:inkscape="http://www.inkscape.org/namespaces/inkscape" viewBox="0 0 377.70169 342.09384" inkscape:version="0.91 r13725" sodipodi:docname="logo.svg">
  <sodipodi:namedview pagecolor="#ffffff" bordercolor="#666666" borderopacity="1.0" inkscape:pageopacity="0.0" inkscape:pageshadow="2" inkscape:zoom="1.0261671" inkscape:cx="208.0708" inkscape:cy="196.18755" inkscape:document-units="px" inkscape:current-layer="layer1" showgrid="false" showborder="false" inkscape:window-width="1366" inkscape:window-height="705" inkscape:window-x="-8" inkscape:window-y="-8" inkscape:window-maximized="1" fit-margin-top="0" fit-margin-left="0" fit-margin-right="0" fit-margin-bottom="0" inkscape:showpageshadow="false" borderlayer="false"/>
  <g inkscape:label="Layer 1" inkscape:groupmode="layer">
    <path inkscape:connector-curvature="0" d="m -7697.4328,9352.9228 c -70.1745,-0.4421 -109.7788,84.0009 -86.5644,144.7753 19.7386,51.6748 75.7987,96.903 115.6797,136.9493 l 3.7129,-6.0684 c 0,0 2.8789,-14.6316 0.9218,-10.5859 -0.7706,1.593 1.4569,-10.906 2.1563,-18.4707 0.6994,-7.5645 -0.9746,-18.1192 -0.9746,-18.1192 0,0 -29.986,7.6512 -36.9414,5.6309 -6.9555,-2.0203 -10.0285,-6.0527 -14.3008,-10.1152 -4.2723,-4.0628 -9.0087,-9.7402 -11.084,-14.0059 -2.0754,-4.2659 -1.0336,-5.4708 -2.502,-10.1172 -1.4685,-4.6468 -6.9545,-12.0251 -6.7929,-17.5098 0.1617,-5.4848 5.7187,-12.4511 5.7187,-12.4511 l 9.6543,-10.1153 24.668,-10.8965 c 0,0 0.021,-11.1262 -0.7148,-16.3398 -0.736,-5.2137 -3.8758,-10.8285 -3.5743,-14.7852 0.3017,-3.9568 2.6709,-4.7288 3.2168,-7.7812 0.5458,-3.0523 -0.2884,-6.2257 -0.3574,-10.1172 -0.069,-3.8914 0,-13.2285 0,-13.2285 0,0 0.7516,-21.5868 3.2188,-29.9609 2.4672,-8.3741 7.2166,-14.667 10.0097,-19.8418 2.7931,-5.1747 6.5235,-11.3204 6.5235,-11.3204 0,0 4.3148,1.989 7.7773,6.6504 3.4625,4.6612 7.3587,16.1302 10.0098,22.5664 2.6511,6.4361 6.0781,15.9532 6.0781,15.9532 l 1.7871,15.9531 22.8809,0.7773 18.2324,-2.3359 4.6504,-4.2773 3.2148,-5.0586 12.8731,-17.5098 14.6562,-18.6738 13.9434,-11.6739 9.6543,-5.0566 5.3613,-1.1699 5.3613,3.1133 1.0743,13.2285 -5.7208,19.0664 -2.1445,25.6777 -4.6484,19.8457 -2.8594,13.6153 -5.7207,17.9003 c 0,0 2.2148,7.999 0.6133,12.0215 -1.601,4.0224 4.749,13.2698 -1.625,8.1172 -6.374,-5.1525 1.6683,3.1916 4.2285,5.9297 2.5603,2.7384 -2.6399,7.4151 1.0723,11.2832 5.9049,6.153 5.4186,15.8241 6.7929,22.5684 1.3744,6.7445 6.587,13.9062 9.295,17.1191 2.708,3.213 4.9866,5.305 8.2246,6.6133 3.2374,1.3085 3.2168,2.3359 3.2168,2.3359 l 7.4707,0.7168 c 22.7211,-23.7067 43.0353,-48.9883 53.3711,-76.0469 30.321,-79.3787 -46.5239,-199.1351 -158.6797,-117.3925 -26.2865,-19.1584 -50.6334,-27.2474 -72.1153,-27.3828 z" style="opacity:0.5;fill:#ff2a2a;fill-opacity:1;fill-rule:evenodd;stroke:none;stroke-width:1px;stroke-linecap:butt;stroke-linejoin:miter;stroke-opacity:1" transform="translate(7793.0773,-9352.9206)"/>
    <path style="fill:none;fill-rule:evenodd;stroke:#ffffff;stroke-width:1px;stroke-linecap:butt;stroke-linejoin:miter;stroke-opacity:1" d="m -7793.0773,9479.8391 32.1585,0 5.847,-14.6175 6.8215,28.2605 7.796,-17.541 4.8725,15.592 15.592,-65.2915 15.592,71.1385 4.8725,-25.337 137.4045,0.9745 4.8725,-11.694 11.694,25.337 7.796,-13.643 6.8215,12.6685 12.6685,-54.572 7.796,55.5465 8.7705,-20.4645 42.878,0.9745" inkscape:connector-curvature="0" transform="translate(7793.0773,-9352.9206)"/>
    <path style="fill:none;fill-rule:evenodd;stroke:none;stroke-width:1.29146826px;stroke-linecap:butt;stroke-linejoin:miter;stroke-opacity:1" d="m -7650.7415,9695.0144 c 0,0 231.9948,-50.8962 235.3659,-217.123" inkscape:connector-curvature="0" sodipodi:nodetypes="cc" transform="translate(7793.0773,-9352.9206)"/>
    <g style="font-style:normal;font-weight:normal;font-size:35px;line-height:138.99999857%;font-family:sans-serif;letter-spacing:6.59000254px;word-spacing:6.40000248px;writing-mode:lr-tb;fill:#ff2a2a;fill-opacity:1;stroke:none;stroke-width:1px;stroke-linecap:butt;stroke-linejoin:miter;stroke-opacity:1">
      <path style="font-style:normal;font-variant:normal;font-weight:100;font-stretch:normal;font-size:40px;line-height:138.99999857%;font-family:'AR BONNIE';-inkscape-font-specification:'AR BONNIE Thin';letter-spacing:5.93000269px;word-spacing:2.55000472px;writing-mode:lr-tb;fill:#ff2a2a;stroke:none;stroke-opacity:1" d="m -7666.9561,9703.4487 q -1.4318,-5.5379 1.296,-10.1681 2.7566,-4.679 8.217,-6.0907 l 0.4806,1.8588 q -4.5697,1.1815 -6.963,5.1881 -2.3933,4.0067 -1.1717,8.7313 1.2115,4.6859 5.2081,7.0405 3.9966,2.3545 8.6438,1.153 l 0.4806,1.8589 q -5.3443,1.3817 -10.062,-1.3648 -4.7177,-2.7465 -6.1294,-8.207 z" inkscape:connector-curvature="0" transform="translate(7793.0773,-9352.9206) matrix(0.96635265,0,0,0.94382061,-247.36575,495.18431)"/>
      <path style="font-style:normal;font-variant:normal;font-weight:100;font-stretch:normal;font-size:40px;line-height:138.99999857%;font-family:'AR BONNIE';-inkscape-font-specification:'AR BONNIE Thin';letter-spacing:5.93000269px;word-spacing:2.55000472px;writing-mode:lr-tb;fill:#ff2a2a;stroke:none;stroke-opacity:1" d="m -7636.3262,9708.6146 -5.3971,-17.2975 -4.6585,1.4535 5.3971,17.2976 -1.871,0.5838 -5.3971,-17.2976 -0.9164,0.2859 -1.2712,-1.6566 1.6038,-0.5004 -1.9658,-6.3004 1.871,-0.5838 1.9658,6.3005 4.6585,-1.4536 -1.9658,-6.3004 1.871,-0.5838 7.9468,25.469 -1.8711,0.5838 z" inkscape:connector-curvature="0" transform="translate(7793.0773,-9352.9206) matrix(0.96635265,0,0,0.94382061,-247.36575,495.18431)"/>
      <path style="font-style:normal;font-variant:normal;font-weight:100;font-stretch:normal;font-size:40px;line-height:138.99999857%;font-family:'AR BONNIE';-inkscape-font-specification:'AR BONNIE Thin';letter-spacing:5.93000269px;word-spacing:2.55000472px;writing-mode:lr-tb;fill:#ff2a2a;stroke:none;stroke-opacity:1" d="m -7625.0254,9704.8688 -6.0312,-17.1292 -0.9432,0.3321 -1.3301,-1.6097 1.6224,-0.5712 -2.1787,-6.1876 6.4518,-2.2717 0.6509,1.8487 -4.603,1.6208 1.5277,4.3389 4.3767,-1.5411 1.33,1.6097 -5.0557,1.7801 5.3802,15.2805 4.603,-1.6207 0.651,1.8487 -6.4518,2.2717 z" inkscape:connector-curvature="0" transform="translate(7793.0773,-9352.9206) matrix(0.96635265,0,0,0.94382061,-247.36575,495.18431)"/>
      <path style="font-style:normal;font-variant:normal;font-weight:100;font-stretch:normal;font-size:40px;line-height:138.99999857%;font-family:'AR BONNIE';-inkscape-font-specification:'AR BONNIE Thin';letter-spacing:5.93000269px;word-spacing:2.55000472px;writing-mode:lr-tb;fill:#ff2a2a;stroke:none;stroke-opacity:1" d="m -7601.9382,9696.2434 -8.5152,-2.8289 2.1165,5.3571 -1.8228,0.7202 -9.8039,-24.8134 1.3764,-0.5439 q 4.1294,-1.6315 8.1854,0.035 4.056,1.6662 5.7023,5.8327 1.3228,3.3482 0.47,6.5237 -0.8527,3.1755 -3.6042,5.6819 l 8.7972,2.8895 -2.9017,1.1465 z m -4.5254,-15.3725 q -1.3376,-3.3854 -4.4144,-4.7503 -3.0543,-1.4167 -6.5719,-0.414 l 6.4232,16.2571 q 3.2012,-1.6949 4.4839,-4.6532 1.3873,-3.1287 0.079,-6.4396 z" inkscape:connector-curvature="0" transform="translate(7793.0773,-9352.9206) matrix(0.96635265,0,0,0.94382061,-247.36575,495.18431)"/>
      <path style="font-style:normal;font-variant:normal;font-weight:100;font-stretch:normal;font-size:40px;line-height:138.99999857%;font-family:'AR BONNIE';-inkscape-font-specification:'AR BONNIE Thin';letter-spacing:5.93000269px;word-spacing:2.55000472px;writing-mode:lr-tb;fill:#ff2a2a;stroke:none;stroke-opacity:1" d="m -7582.6271,9687.9662 -8.6323,-2.4484 2.3521,5.2579 -1.7892,0.8004 -10.8947,-24.3542 1.3509,-0.6044 q 4.053,-1.8131 8.1789,-0.3285 4.1259,1.4846 5.9553,5.5741 1.4701,3.2862 0.759,6.4964 -0.7111,3.2102 -3.3487,5.8362 l 8.9167,2.4965 -2.848,1.274 z m -5.2028,-15.1567 q -1.4864,-3.3227 -4.6207,-4.5497 -3.1141,-1.28 -6.5838,-0.1222 l 7.1379,15.9562 q 3.1229,-1.8352 4.2731,-4.8475 1.2472,-3.1871 -0.2065,-6.4368 z" inkscape:connector-curvature="0" transform="translate(7793.0773,-9352.9206) matrix(0.96635265,0,0,0.94382061,-247.36575,495.18431)"/>
      <path style="font-style:normal;font-variant:normal;font-weight:100;font-stretch:normal;font-size:40px;line-height:138.99999857%;font-family:'AR BONNIE';-inkscape-font-specification:'AR BONNIE Thin';letter-spacing:5.93000269px;word-spacing:2.55000472px;writing-mode:lr-tb;fill:#ff2a2a;stroke:none;stroke-opacity:1" d="m -7568.1147,9681.0232 -8.2545,-16.3998 -8.6712,-4.9499 2.108,-1.061 6.5753,3.8106 0.7135,-7.4793 2.108,-1.0611 -1.1185,9.8775 8.2545,16.3998 -1.7151,0.8632 z" inkscape:connector-curvature="0" transform="translate(7793.0773,-9352.9206) matrix(0.96635265,0,0,0.94382061,-247.36575,495.18431)"/>
      <path style="font-style:normal;font-variant:normal;font-weight:100;font-stretch:normal;font-size:40px;line-height:138.99999857%;font-family:'AR BONNIE';-inkscape-font-specification:'AR BONNIE Thin';letter-spacing:5.93000269px;word-spacing:2.55000472px;writing-mode:lr-tb;fill:#ff2a2a;stroke:none;stroke-opacity:1" d="m -7532.8953,9661.1023 -13.3777,-20.7875 -2.6573,1.7101 -1.0606,-1.6482 6.8955,-4.4376 1.0606,1.6482 -2.59,1.6668 13.3777,20.7875 -1.6482,1.0607 z" inkscape:connector-curvature="0" transform="translate(7793.0773,-9352.9206) matrix(0.96635265,0,0,0.94382061,-247.36575,495.18431)"/>
      <path style="font-style:normal;font-variant:normal;font-weight:100;font-stretch:normal;font-size:40px;line-height:138.99999857%;font-family:'AR BONNIE';-inkscape-font-specification:'AR BONNIE Thin';letter-spacing:5.93000269px;word-spacing:2.55000472px;writing-mode:lr-tb;fill:#ff2a2a;stroke:none;stroke-opacity:1" d="m -7514.7914,9648.6794 -8.9504,-0.6331 3.3767,4.6664 -1.5879,1.149 -15.6408,-21.6145 1.1991,-0.8676 q 3.597,-2.6029 7.9392,-1.9926 4.3422,0.6103 6.9685,4.2398 2.1105,2.9165 2.0702,6.2043 -0.04,3.2877 -2.0856,6.3972 l 9.2387,0.6221 -2.5277,1.829 z m -8.1897,-13.774 q -2.1339,-2.9489 -5.4528,-3.5097 -3.3099,-0.6167 -6.4699,1.2255 l 10.2474,14.1613 q 2.682,-2.4345 3.1926,-5.6182 0.5697,-3.3748 -1.5173,-6.2589 z" inkscape:connector-curvature="0" transform="translate(7793.0773,-9352.9206) matrix(0.96635265,0,0,0.94382061,-247.36575,495.18431)"/>
      <path style="font-style:normal;font-variant:normal;font-weight:100;font-stretch:normal;font-size:40px;line-height:138.99999857%;font-family:'AR BONNIE';-inkscape-font-specification:'AR BONNIE Thin';letter-spacing:5.93000269px;word-spacing:2.55000472px;writing-mode:lr-tb;fill:#ff2a2a;stroke:none;stroke-opacity:1" d="m -7505.0003,9641.1225 -11.5496,-14.0141 -0.7717,0.636 -1.8022,-1.0546 1.3274,-1.0939 -4.1721,-5.0623 5.2784,-4.3502 1.2465,1.5125 -3.7659,3.1036 2.9256,3.5499 3.5807,-2.951 1.8021,1.0546 -4.1363,3.4089 10.3031,12.5015 3.7658,-3.1036 1.2466,1.5125 -5.2784,4.3502 z" inkscape:connector-curvature="0" transform="translate(7793.0773,-9352.9206) matrix(0.96635265,0,0,0.94382061,-247.36575,495.18431)"/>
      <path style="font-style:normal;font-variant:normal;font-weight:100;font-stretch:normal;font-size:40px;line-height:138.99999857%;font-family:'AR BONNIE';-inkscape-font-specification:'AR BONNIE Thin';letter-spacing:5.93000269px;word-spacing:2.55000472px;writing-mode:lr-tb;fill:#ff2a2a;stroke:none;stroke-opacity:1" d="m -7492.8383,9630.7152 -12.3769,-13.289 -0.7318,0.6816 -1.8627,-0.9436 1.2587,-1.1723 -4.471,-4.8004 5.0053,-4.6618 1.3359,1.4343 -3.5711,3.3259 3.1351,3.3662 3.3955,-3.1624 1.8627,0.9436 -3.9223,3.6531 11.0411,11.8547 3.571,-3.326 1.3359,1.4343 -5.0054,4.6618 z" inkscape:connector-curvature="0" transform="translate(7793.0773,-9352.9206) matrix(0.96635265,0,0,0.94382061,-247.36575,495.18431)"/>
      <path style="font-style:normal;font-variant:normal;font-weight:100;font-stretch:normal;font-size:40px;line-height:138.99999857%;font-family:'AR BONNIE';-inkscape-font-specification:'AR BONNIE Thin';letter-spacing:5.93000269px;word-spacing:2.55000472px;writing-mode:lr-tb;fill:#ff2a2a;stroke:none;stroke-opacity:1" d="m -7488.4829,9587.439 1.2367,-1.6724 17.7827,7.975 -12.9076,-14.5684 1.2129,-1.6403 18.3524,21.1314 -25.6771,-11.2253 z" inkscape:connector-curvature="0" transform="translate(7793.0773,-9352.9206) matrix(0.96635265,0,0,0.94382061,-247.36575,495.18431)"/>
      <path style="font-style:normal;font-variant:normal;font-weight:100;font-stretch:normal;font-size:40px;line-height:138.99999857%;font-family:'AR BONNIE';-inkscape-font-specification:'AR BONNIE Thin';letter-spacing:5.93000269px;word-spacing:2.55000472px;writing-mode:lr-tb;fill:#ff2a2a;stroke:none;stroke-opacity:1" d="m -7455.1896,9586.4245 -15.5285,-9.4155 -0.5185,0.8551 -2.0493,-0.4006 0.8918,-1.4707 -5.6094,-3.4012 3.5464,-5.8488 1.676,1.0162 -2.5302,4.1728 3.9334,2.385 2.4058,-3.9676 2.0492,0.4005 -2.779,4.5833 13.8525,8.3993 2.5302,-4.1728 1.6759,1.0162 -3.5463,5.8488 z" inkscape:connector-curvature="0" transform="translate(7793.0773,-9352.9206) matrix(0.96635265,0,0,0.94382061,-247.36575,495.18431)"/>
      <path style="font-style:normal;font-variant:normal;font-weight:100;font-stretch:normal;font-size:40px;line-height:138.99999857%;font-family:'AR BONNIE';-inkscape-font-specification:'AR BONNIE Thin';letter-spacing:5.93000269px;word-spacing:2.55000472px;writing-mode:lr-tb;fill:#ff2a2a;stroke:none;stroke-opacity:1" d="m -7446.6849,9571.2884 -22.1664,-10.9419 -1.3988,2.8336 -1.7575,-0.8676 3.6473,-7.3888 1.7575,0.8675 -1.381,2.7978 22.1665,10.9419 -0.8676,1.7575 z" inkscape:connector-curvature="0" transform="translate(7793.0773,-9352.9206) matrix(0.96635265,0,0,0.94382061,-247.36575,495.18431)"/>
      <path style="font-style:normal;font-variant:normal;font-weight:100;font-stretch:normal;font-size:40px;line-height:138.99999857%;font-family:'AR BONNIE';-inkscape-font-specification:'AR BONNIE Thin';letter-spacing:5.93000269px;word-spacing:2.55000472px;writing-mode:lr-tb;fill:#ff2a2a;stroke:none;stroke-opacity:1" d="m -7443.6541,9560.1331 q 1.2432,-3.2075 1.2894,-4.4336 0.107,-2.4896 -2.5038,-3.5015 -1.8648,-0.7228 -5.1139,-0.309 -3.2347,0.3764 -6.2684,0.7879 -3.5764,0.3727 -5.4786,-0.3645 -2.3496,-0.9107 -2.9421,-2.8134 -0.6152,-1.9545 0.3244,-4.3787 l 0.5204,-1.3427 1.7902,0.6938 q -0.9107,2.3497 -0.9448,3.3232 -0.054,1.9096 1.8484,2.6469 1.9394,0.7517 5.3522,0.3584 2.9964,-0.4259 5.9928,-0.8518 3.5764,-0.3727 5.6277,0.4223 2.6854,1.0408 3.4545,3.4839 0.715,2.2505 -0.3547,5.0104 l -0.7661,1.9768 -1.8276,-0.7084 z" inkscape:connector-curvature="0" transform="translate(7793.0773,-9352.9206) matrix(0.96635265,0,0,0.94382061,-247.36575,495.18431)"/>
    </g>
  </g>
</svg>
